<?xml version="1.0" standalone="no"?><svg xmlns="http://www.w3.org/2000/svg" viewBox="0 0 1440 320"><path fill="#ff" fill-opacity="1" d="M0,160L30,144C60,128,120,96,180,96C240,96,300,128,360,133.3C420,139,480,117,540,106.7C600,96,660,96,720,128C780,160,840,224,900,256C960,288,1020,288,1080,266.7C1140,245,1200,203,1260,202.7C1320,203,1380,245,1410,266.7L1440,288L1440,320L1410,320C1380,320,1320,320,1260,320C1200,320,1140,320,1080,320C1020,320,960,320,900,320C840,320,780,320,720,320C660,320,600,320,540,320C480,320,420,320,360,320C300,320,240,320,180,320C120,320,60,320,30,320L0,320Z"></path></svg>